<svg width="35" height="35" viewBox="0 0 35 35" fill="none" xmlns="http://www.w3.org/2000/svg">
<rect width="35" height="35" fill="#DEDEDE" fill-opacity="0.8"/>
<path fill-rule="evenodd" clip-rule="evenodd" d="M7.5 7.5H27.5V27.5H7.5V7.5ZM14.5 17.5C14.5 19.1569 15.8431 20.5 17.5 20.5C19.1569 20.5 20.5 19.1569 20.5 17.5C20.5 15.8431 19.1569 14.5 17.5 14.5C15.8431 14.5 14.5 15.8431 14.5 17.5ZM17.5 12.5C14.7386 12.5 12.5 14.7386 12.5 17.5C12.5 20.2614 14.7386 22.5 17.5 22.5C20.2614 22.5 22.5 20.2614 22.5 17.5C22.5 14.7386 20.2614 12.5 17.5 12.5ZM24 9.5C23.1716 9.5 22.5 10.1716 22.5 11C22.5 11.8284 23.1716 12.5 24 12.5C24.8284 12.5 25.5 11.8284 25.5 11C25.5 10.1716 24.8284 9.5 24 9.5Z" fill="#0A0707"/>
</svg>
