<svg width="109" height="22" viewBox="0 0 109 22" fill="none" xmlns="http://www.w3.org/2000/svg">
<path d="M2.13731 20.0182L10.7134 4.77189L10.7134 20.0182H2.13731Z" stroke="#DEDEDE" stroke-opacity="0.8" stroke-width="2.5"/>
<path d="M13.293 0H109V2.65853H13.293V0Z" fill="#DEDEDE" fill-opacity="0.8"/>
<path d="M14.6462 7.09288H19.7965C20.8739 7.09288 21.7988 7.25514 22.5712 7.57967C23.3436 7.9042 23.9375 8.3845 24.3529 9.02057C24.7683 9.65665 24.976 10.4388 24.976 11.3669C24.976 12.1003 24.8462 12.7364 24.5865 13.2751C24.3269 13.8138 23.9602 14.2649 23.4864 14.6284C23.0191 14.9919 22.4674 15.2775 21.8313 15.4852L20.994 15.9135H16.4474L16.4279 13.8009H19.8257C20.3774 13.8009 20.835 13.7035 21.1985 13.5088C21.5619 13.3141 21.8345 13.0447 22.0163 12.7007C22.2045 12.3567 22.2986 11.964 22.2986 11.5227C22.2986 11.0489 22.2077 10.64 22.026 10.296C21.8443 9.94548 21.5684 9.67612 21.1985 9.48789C20.8285 9.29967 20.3612 9.20555 19.7965 9.20555H17.3236V21.2682H14.6462V7.09288ZM22.6491 21.2682L19.3681 14.9205L22.2013 14.9107L25.5212 21.1319V21.2682H22.6491Z" fill="#DEDEDE" fill-opacity="0.8"/>
<path d="M36.9133 16.6048H39.5906C39.5192 17.5524 39.2563 18.3929 38.802 19.1264C38.3477 19.8533 37.7148 20.4245 36.9035 20.8399C36.0922 21.2553 35.1089 21.463 33.9536 21.463C33.0644 21.463 32.2628 21.3072 31.5488 20.9956C30.8413 20.6776 30.2345 20.2265 29.7282 19.6424C29.2284 19.0517 28.8455 18.3443 28.5794 17.52C28.3133 16.6892 28.1802 15.7578 28.1802 14.7258V13.6451C28.1802 12.6131 28.3165 11.6817 28.5891 10.8509C28.8617 10.0201 29.2512 9.31265 29.7574 8.7285C30.2702 8.13786 30.8835 7.68352 31.5975 7.36548C32.3179 7.04744 33.1228 6.88842 34.012 6.88842C35.1673 6.88842 36.1441 7.10261 36.9425 7.53099C37.7408 7.95288 38.3607 8.53378 38.802 9.2737C39.2434 10.0136 39.5095 10.8639 39.6003 11.8245H36.923C36.8711 11.2274 36.7413 10.7211 36.5336 10.3057C36.3324 9.89031 36.0273 9.57551 35.6184 9.36133C35.216 9.14065 34.6805 9.03031 34.012 9.03031C33.4927 9.03031 33.0352 9.12767 32.6392 9.32238C32.2498 9.5171 31.9253 9.80917 31.6656 10.1986C31.406 10.5815 31.2113 11.0619 31.0815 11.6395C30.9517 12.2107 30.8868 12.8727 30.8868 13.6256V14.7258C30.8868 15.4462 30.9452 16.092 31.062 16.6632C31.1789 17.2344 31.3606 17.7179 31.6072 18.1138C31.8539 18.5098 32.1719 18.8116 32.5613 19.0193C32.9508 19.227 33.4149 19.3308 33.9536 19.3308C34.6091 19.3308 35.1413 19.227 35.5502 19.0193C35.9656 18.8116 36.2804 18.5065 36.4946 18.1041C36.7153 17.7017 36.8548 17.2019 36.9133 16.6048Z" fill="#DEDEDE" fill-opacity="0.8"/>
<path d="M45.813 7.09288V21.2682H43.1356V7.09288H45.813Z" fill="#DEDEDE" fill-opacity="0.8"/>
<path d="M55.7934 7.09288V21.2682H53.1258V7.09288H55.7934ZM60.194 7.09288V9.20555H48.7738V7.09288H60.194Z" fill="#DEDEDE" fill-opacity="0.8"/>
<path d="M66.1243 7.09288V21.2682H63.4469V7.09288H66.1243Z" fill="#DEDEDE" fill-opacity="0.8"/>
<path d="M72.6192 7.09288L75.4523 12.1458L78.2952 7.09288H81.3717L77.1659 14.1221L81.4788 21.2682H78.3731L75.4523 16.118L72.5413 21.2682H69.4259L73.7388 14.1221L69.533 7.09288H72.6192Z" fill="#DEDEDE" fill-opacity="0.8"/>
<path d="M93.8153 19.1653V21.2682H86.2798V19.1653H93.8153ZM87.0976 7.09288V21.2682H84.4202V7.09288H87.0976ZM92.832 12.9441V14.9984H86.2798V12.9441H92.832ZM93.7861 7.09288V9.20555H86.2798V7.09288H93.7861Z" fill="#DEDEDE" fill-opacity="0.8"/>
<path d="M96.9709 7.09288H102.121C103.199 7.09288 104.123 7.25514 104.896 7.57967C105.668 7.9042 106.262 8.3845 106.677 9.02057C107.093 9.65665 107.301 10.4388 107.301 11.3669C107.301 12.1003 107.171 12.7364 106.911 13.2751C106.652 13.8138 106.285 14.2649 105.811 14.6284C105.344 14.9919 104.792 15.2775 104.156 15.4852L103.319 15.9135H98.772L98.7525 13.8009H102.15C102.702 13.8009 103.16 13.7035 103.523 13.5088C103.887 13.3141 104.159 13.0447 104.341 12.7007C104.529 12.3567 104.623 11.964 104.623 11.5227C104.623 11.0489 104.532 10.64 104.351 10.296C104.169 9.94548 103.893 9.67612 103.523 9.48789C103.153 9.29967 102.686 9.20555 102.121 9.20555H99.6482V21.2682H96.9709V7.09288ZM104.974 21.2682L101.693 14.9205L104.526 14.9107L107.846 21.1319V21.2682H104.974Z" fill="#DEDEDE" fill-opacity="0.8"/>
</svg>
